<?xml version="1.0" encoding="utf-8"?>
<!-- Generator: Adobe Illustrator 27.3.0, SVG Export Plug-In . SVG Version: 6.00 Build 0)  -->
<svg version="1.1" id="Calque_1" xmlns="http://www.w3.org/2000/svg" xmlns:xlink="http://www.w3.org/1999/xlink" x="0px" y="0px"
	 viewBox="0 0 423 107" style="enable-background:new 0 0 423 107;" xml:space="preserve">
<style type="text/css">
	.st0{fill:#E9D397;}
	.st1{enable-background:new    ;}
	.st2{fill:#DE5045;}
</style>
<g>
	
		<image style="overflow:visible;opacity:0.75;enable-background:new    ;" width="458" height="142" xlink:href="5900F71A.png"  transform="matrix(0.9974 0 0 0.9974 -13.2307 -13.6429)">
	</image>
	<g>
		<rect y="0.1" class="st0" width="422.7" height="107"/>
	</g>
</g>
<g class="st1">
	<path class="st2" d="M76.6,64.6H91v7.2h21.6V57.4H83.8v-7.2h-7.2V35.8h7.2v-7.2h28.8v7.2h7.2V43h-14.4v-7.2H91v14.4h28.8v7.2h7.2
		v14.4h-7.2V79h-36v-7.2h-7.2V64.6z"/>
</g>
<g class="st1">
	<path class="st2" d="M173,28.6v7.2h-14.4V79h-14.4V35.8h-14.4v-7.2H173z"/>
	<path class="st2" d="M180.2,43h7.2v-7.2h7.2v-7.2h21.6v7.2h7.2V43h7.2v36h-14.4V64.6h-21.6V79h-14.4V43z M194.6,43v14.4h21.6V43
		H209v-7.2h-7.2V43H194.6z"/>
	<path class="st2" d="M237.8,28.6h43.2v7.2h7.2v21.6h-14.4v7.2h7.2v7.2h7.2V79h-21.6v-7.2h-7.2v-7.2h-7.2V79h-14.4V28.6z
		 M252.1,35.8v21.6h14.4v-7.2h7.2V35.8H252.1z"/>
</g>
<g class="st1">
	<path class="st2" d="M345.7,28.6v7.2h-14.4V79h-14.4V35.8h-14.4v-7.2H345.7z"/>
</g>
</svg>
